<?xml version="1.0" standalone="no"?>
<!DOCTYPE svg PUBLIC "-//W3C//DTD SVG 20010904//EN"
 "http://www.w3.org/TR/2001/REC-SVG-20010904/DTD/svg10.dtd">
<svg version="1.0" xmlns="http://www.w3.org/2000/svg"
 width="370.000000pt" height="200.000000pt" viewBox="0 0 370.000000 200.000000"
 preserveAspectRatio="xMidYMid meet">

<g transform="translate(0.000000,200.000000) scale(0.100000,-0.100000)"
fill="#ffffff" stroke="none">
<path d="M2834 1875 c-116 -21 -226 -65 -300 -120 l-30 -23 -50 31 c-71 44
-148 73 -243 91 -67 13 -160 16 -472 16 l-389 0 -2 -382 -3 -382 -141 380
-142 379 -172 0 -172 0 -199 -535 c-110 -294 -202 -543 -205 -553 -5 -16 6
-17 177 -15 l182 3 106 318 c58 174 108 317 111 317 3 0 53 -143 111 -317
l106 -318 626 -3 627 -2 58 29 c74 37 150 97 181 143 l24 35 82 -37 c44 -21
148 -62 230 -90 83 -29 162 -59 177 -66 21 -11 84 -14 268 -14 l240 0 -21 41
c-69 136 -236 244 -524 339 -162 53 -260 99 -304 142 -40 40 -51 65 -51 124 0
76 37 126 125 166 74 33 228 33 303 -1 84 -38 142 -122 142 -205 l0 -26 186 0
186 0 -7 58 c-30 244 -202 418 -468 473 -106 22 -247 23 -353 4z m-654 -331
c51 -24 115 -90 136 -141 25 -57 29 -152 10 -216 -21 -71 -61 -118 -128 -148
-49 -22 -68 -24 -265 -27 l-213 -4 0 282 0 282 208 -4 c184 -3 212 -6 252 -24z"/>
<path d="M179 413 c-35 -91 -119 -316 -119 -319 0 -2 87 -4 194 -4 l194 0 33
98 c17 53 45 132 60 175 l28 77 -189 0 -190 0 -11 -27z"/>
<path d="M1220 433 c0 -5 26 -83 57 -175 l58 -168 193 0 192 0 0 175 0 175
-250 0 c-137 0 -250 -3 -250 -7z"/>
<path d="M2340 430 c0 -18 66 -115 104 -153 77 -78 195 -141 331 -178 114 -32
374 -32 486 -1 162 44 291 138 349 254 16 34 30 67 30 75 0 10 -38 13 -191 13
l-190 0 -37 -30 c-67 -53 -205 -74 -324 -49 -55 12 -142 51 -153 69 -9 14
-405 14 -405 0z"/>
</g>
</svg>
